{
    "asset" : {
        "generator" : "Khronos glTF Blender I/O v1.5.17",
        "version" : "2.0"
    },
    "scene" : 0,
    "scenes" : [
        {
            "name" : "Scene",
            "nodes" : [
                0
            ]
        }
    ],
    "nodes" : [
        {
            "mesh" : 0,
            "name" : "Knight.003",
            "rotation" : [
                0.7071068286895752,
                0,
                0,
                0.7071068286895752
            ]
        }
    ],
    "materials" : [
        {
            "doubleSided" : true,
            "name" : "KnightDark",
            "pbrMetallicRoughness" : {
                "baseColorFactor" : [
                    0.07227184623479843,
                    0.07227184623479843,
                    0.07227184623479843,
                    1
                ],
                "metallicFactor" : 0,
                "roughnessFactor" : 0.5
            }
        }
    ],
    "meshes" : [
        {
            "name" : "Knight.003",
            "primitives" : [
                {
                    "attributes" : {
                        "POSITION" : 0,
                        "NORMAL" : 1,
                        "TEXCOORD_0" : 2
                    },
                    "indices" : 3,
                    "material" : 0
                }
            ]
        }
    ],
    "accessors" : [
        {
            "bufferView" : 0,
            "componentType" : 5126,
            "count" : 718,
            "max" : [
                0.4478585124015808,
                0.44370734691619873,
                1.957651996065124e-08
            ],
            "min" : [
                -0.4478585124015808,
                -0.3878569006919861,
                -1.2560700178146362
            ],
            "type" : "VEC3"
        },
        {
            "bufferView" : 1,
            "componentType" : 5126,
            "count" : 718,
            "type" : "VEC3"
        },
        {
            "bufferView" : 2,
            "componentType" : 5126,
            "count" : 718,
            "type" : "VEC2"
        },
        {
            "bufferView" : 3,
            "componentType" : 5123,
            "count" : 858,
            "type" : "SCALAR"
        }
    ],
    "bufferViews" : [
        {
            "buffer" : 0,
            "byteLength" : 8616,
            "byteOffset" : 0
        },
        {
            "buffer" : 0,
            "byteLength" : 8616,
            "byteOffset" : 8616
        },
        {
            "buffer" : 0,
            "byteLength" : 5744,
            "byteOffset" : 17232
        },
        {
            "buffer" : 0,
            "byteLength" : 1716,
            "byteOffset" : 22976
        }
    ],
    "buffers" : [
        {
            "byteLength" : 24692,
            "uri" : "data:application/octet-stream;base64,"
        }
    ]
}
