{
    "asset" : {
        "generator" : "Khronos glTF Blender I/O v1.5.17",
        "version" : "2.0"
    },
    "scene" : 0,
    "scenes" : [
        {
            "name" : "Scene",
            "nodes" : [
                0
            ]
        }
    ],
    "nodes" : [
        {
            "mesh" : 0,
            "name" : "Board",
            "rotation" : [
                0.7071068286895752,
                0,
                0,
                0.7071068286895752
            ],
            "translation" : [
                0,
                0.29999998211860657,
                0
            ]
        }
    ],
    "materials" : [
        {
            "doubleSided" : true,
            "name" : "Lights",
            "pbrMetallicRoughness" : {
                "baseColorFactor" : [
                    0.7379109859466553,
                    0.6444797515869141,
                    0.539479672908783,
                    1
                ],
                "metallicFactor" : 0,
                "roughnessFactor" : 0.5
            }
        },
        {
            "doubleSided" : true,
            "name" : "Darks",
            "pbrMetallicRoughness" : {
                "baseColorFactor" : [
                    0.07227184623479843,
                    0.07227184623479843,
                    0.07227184623479843,
                    1
                ],
                "metallicFactor" : 0,
                "roughnessFactor" : 0.5
            }
        }
    ],
    "meshes" : [
        {
            "name" : "Board",
            "primitives" : [
                {
                    "attributes" : {
                        "POSITION" : 0,
                        "NORMAL" : 1,
                        "TEXCOORD_0" : 2
                    },
                    "indices" : 3,
                    "material" : 0
                },
                {
                    "attributes" : {
                        "POSITION" : 4,
                        "NORMAL" : 5,
                        "TEXCOORD_0" : 6
                    },
                    "indices" : 7,
                    "material" : 1
                }
            ]
        }
    ],
    "accessors" : [
        {
            "bufferView" : 0,
            "componentType" : 5126,
            "count" : 120,
            "max" : [
                4.006350994110107,
                4.000003814697266,
                -0.24916940927505493
            ],
            "min" : [
                -4.0063581466674805,
                -3.9999966621398926,
                -0.24916976690292358
            ],
            "type" : "VEC3"
        },
        {
            "bufferView" : 1,
            "componentType" : 5126,
            "count" : 120,
            "type" : "VEC3"
        },
        {
            "bufferView" : 2,
            "componentType" : 5126,
            "count" : 120,
            "type" : "VEC2"
        },
        {
            "bufferView" : 3,
            "componentType" : 5123,
            "count" : 192,
            "type" : "SCALAR"
        },
        {
            "bufferView" : 4,
            "componentType" : 5126,
            "count" : 454,
            "max" : [
                4.999997138977051,
                5.000004291534424,
                0.3007825016975403
            ],
            "min" : [
                -5.000003814697266,
                -4.999996662139893,
                -0.36535871028900146
            ],
            "type" : "VEC3"
        },
        {
            "bufferView" : 5,
            "componentType" : 5126,
            "count" : 454,
            "type" : "VEC3"
        },
        {
            "bufferView" : 6,
            "componentType" : 5126,
            "count" : 454,
            "type" : "VEC2"
        },
        {
            "bufferView" : 7,
            "componentType" : 5123,
            "count" : 624,
            "type" : "SCALAR"
        }
    ],
    "bufferViews" : [
        {
            "buffer" : 0,
            "byteLength" : 1440,
            "byteOffset" : 0
        },
        {
            "buffer" : 0,
            "byteLength" : 1440,
            "byteOffset" : 1440
        },
        {
            "buffer" : 0,
            "byteLength" : 960,
            "byteOffset" : 2880
        },
        {
            "buffer" : 0,
            "byteLength" : 384,
            "byteOffset" : 3840
        },
        {
            "buffer" : 0,
            "byteLength" : 5448,
            "byteOffset" : 4224
        },
        {
            "buffer" : 0,
            "byteLength" : 5448,
            "byteOffset" : 9672
        },
        {
            "buffer" : 0,
            "byteLength" : 3632,
            "byteOffset" : 15120
        },
        {
            "buffer" : 0,
            "byteLength" : 1248,
            "byteOffset" : 18752
        }
    ],
    "buffers" : [
        {
            "byteLength" : 20000,
            "uri" : "data:application/octet-stream;base64,"
        }
    ]
}
