{
    "asset" : {
        "generator" : "Khronos glTF Blender I/O v1.5.17",
        "version" : "2.0"
    },
    "scene" : 0,
    "scenes" : [
        {
            "name" : "Scene",
            "nodes" : [
                0
            ]
        }
    ],
    "nodes" : [
        {
            "mesh" : 0,
            "name" : "Rook.003",
            "rotation" : [
                0.7071068286895752,
                0,
                0,
                0.7071068286895752
            ]
        }
    ],
    "materials" : [
        {
            "doubleSided" : true,
            "name" : "RookDark",
            "pbrMetallicRoughness" : {
                "baseColorFactor" : [
                    0.07323896139860153,
                    0.07323896139860153,
                    0.07323896139860153,
                    1
                ],
                "metallicFactor" : 0,
                "roughnessFactor" : 0.5
            }
        }
    ],
    "meshes" : [
        {
            "name" : "Rook.003",
            "primitives" : [
                {
                    "attributes" : {
                        "POSITION" : 0,
                        "NORMAL" : 1,
                        "TEXCOORD_0" : 2
                    },
                    "indices" : 3,
                    "material" : 0
                }
            ]
        }
    ],
    "accessors" : [
        {
            "bufferView" : 0,
            "componentType" : 5126,
            "count" : 668,
            "max" : [
                0.4478585124015808,
                0.3878569006919861,
                1.957651996065124e-08
            ],
            "min" : [
                -0.4478585124015808,
                -0.3878569006919861,
                -1.315554141998291
            ],
            "type" : "VEC3"
        },
        {
            "bufferView" : 1,
            "componentType" : 5126,
            "count" : 668,
            "type" : "VEC3"
        },
        {
            "bufferView" : 2,
            "componentType" : 5126,
            "count" : 668,
            "type" : "VEC2"
        },
        {
            "bufferView" : 3,
            "componentType" : 5123,
            "count" : 1008,
            "type" : "SCALAR"
        }
    ],
    "bufferViews" : [
        {
            "buffer" : 0,
            "byteLength" : 8016,
            "byteOffset" : 0
        },
        {
            "buffer" : 0,
            "byteLength" : 8016,
            "byteOffset" : 8016
        },
        {
            "buffer" : 0,
            "byteLength" : 5344,
            "byteOffset" : 16032
        },
        {
            "buffer" : 0,
            "byteLength" : 2016,
            "byteOffset" : 21376
        }
    ],
    "buffers" : [
        {
            "byteLength" : 23392,
            "uri" : "data:application/octet-stream;base64,"
        }
    ]
}
