{
    "asset" : {
        "generator" : "Khronos glTF Blender I/O v1.5.17",
        "version" : "2.0"
    },
    "scene" : 0,
    "scenes" : [
        {
            "name" : "Scene",
            "nodes" : [
                0
            ]
        }
    ],
    "nodes" : [
        {
            "mesh" : 0,
            "name" : "Pawn.001",
            "rotation" : [
                0,
                0.7071068286895752,
                -0.7071068286895752,
                5.338508302088485e-08
            ]
        }
    ],
    "materials" : [
        {
            "doubleSided" : true,
            "name" : "Pawn",
            "pbrMetallicRoughness" : {
                "baseColorFactor" : [
                    0.7379105091094971,
                    0.6444797515869141,
                    0.539479672908783,
                    1
                ],
                "metallicFactor" : 0,
                "roughnessFactor" : 0.5
            }
        }
    ],
    "meshes" : [
        {
            "name" : "Pawn.002",
            "primitives" : [
                {
                    "attributes" : {
                        "POSITION" : 0,
                        "NORMAL" : 1,
                        "TEXCOORD_0" : 2
                    },
                    "indices" : 3,
                    "material" : 0
                }
            ]
        }
    ],
    "accessors" : [
        {
            "bufferView" : 0,
            "componentType" : 5126,
            "count" : 420,
            "max" : [
                0.37795478105545044,
                0.3273184895515442,
                3.6875555053939024e-08
            ],
            "min" : [
                -0.37795478105545044,
                -0.3273185193538666,
                -1.2133604288101196
            ],
            "type" : "VEC3"
        },
        {
            "bufferView" : 1,
            "componentType" : 5126,
            "count" : 420,
            "type" : "VEC3"
        },
        {
            "bufferView" : 2,
            "componentType" : 5126,
            "count" : 420,
            "type" : "VEC2"
        },
        {
            "bufferView" : 3,
            "componentType" : 5123,
            "count" : 612,
            "type" : "SCALAR"
        }
    ],
    "bufferViews" : [
        {
            "buffer" : 0,
            "byteLength" : 5040,
            "byteOffset" : 0
        },
        {
            "buffer" : 0,
            "byteLength" : 5040,
            "byteOffset" : 5040
        },
        {
            "buffer" : 0,
            "byteLength" : 3360,
            "byteOffset" : 10080
        },
        {
            "buffer" : 0,
            "byteLength" : 1224,
            "byteOffset" : 13440
        }
    ],
    "buffers" : [
        {
            "byteLength" : 14664,
            "uri" : "data:application/octet-stream;base64,"
        }
    ]
}
