{
    "asset" : {
        "generator" : "Khronos glTF Blender I/O v1.5.17",
        "version" : "2.0"
    },
    "scene" : 0,
    "scenes" : [
        {
            "name" : "Scene",
            "nodes" : [
                0
            ]
        }
    ],
    "nodes" : [
        {
            "mesh" : 0,
            "name" : "Bishop.003",
            "rotation" : [
                -0.7071068286895752,
                0,
                0,
                -0.7071068286895752
            ]
        }
    ],
    "materials" : [
        {
            "doubleSided" : true,
            "name" : "Bishop Dark",
            "pbrMetallicRoughness" : {
                "baseColorFactor" : [
                    0.07227184623479843,
                    0.07227184623479843,
                    0.07227184623479843,
                    1
                ],
                "metallicFactor" : 0,
                "roughnessFactor" : 0.5
            }
        }
    ],
    "meshes" : [
        {
            "name" : "Bishop.003",
            "primitives" : [
                {
                    "attributes" : {
                        "POSITION" : 0,
                        "NORMAL" : 1,
                        "TEXCOORD_0" : 2
                    },
                    "indices" : 3,
                    "material" : 0
                }
            ]
        }
    ],
    "accessors" : [
        {
            "bufferView" : 0,
            "componentType" : 5126,
            "count" : 820,
            "max" : [
                0.4381749629974365,
                0.37947070598602295,
                1.9153237218461072e-08
            ],
            "min" : [
                -0.4381749629974365,
                -0.37947070598602295,
                -1.5062298774719238
            ],
            "type" : "VEC3"
        },
        {
            "bufferView" : 1,
            "componentType" : 5126,
            "count" : 820,
            "type" : "VEC3"
        },
        {
            "bufferView" : 2,
            "componentType" : 5126,
            "count" : 820,
            "type" : "VEC2"
        },
        {
            "bufferView" : 3,
            "componentType" : 5123,
            "count" : 834,
            "type" : "SCALAR"
        }
    ],
    "bufferViews" : [
        {
            "buffer" : 0,
            "byteLength" : 9840,
            "byteOffset" : 0
        },
        {
            "buffer" : 0,
            "byteLength" : 9840,
            "byteOffset" : 9840
        },
        {
            "buffer" : 0,
            "byteLength" : 6560,
            "byteOffset" : 19680
        },
        {
            "buffer" : 0,
            "byteLength" : 1668,
            "byteOffset" : 26240
        }
    ],
    "buffers" : [
        {
            "byteLength" : 27908,
            "uri" : "data:application/octet-stream;base64,"
        }
    ]
}
